<svg id="Vrstva_1" data-name="Vrstva 1" xmlns="http://www.w3.org/2000/svg" viewBox="0 0 700.11 225.95"><defs><style>.cls-1{fill:#9d9d9c;}</style></defs><title>PID_logo_grey</title><path class="cls-1" d="M244.79,74.58l12.53-43.8.16-.54h22.39a23.84,23.84,0,0,1,6.51.76,8.82,8.82,0,0,1,4.44,2.61,6.75,6.75,0,0,1,1.53,4.51,12.79,12.79,0,0,1-.55,3.53L290,47.92h0a13.75,13.75,0,0,1-.49,1.45c-.18.47-.39.93-.61,1.37a14.75,14.75,0,0,1-5,5.65,17.47,17.47,0,0,1-5.09,2.31,22.93,22.93,0,0,1-6.07.77H258L253.51,75l-.16.54h-8.84l.28-1ZM12.09,52.67C30.79,18.06,77.49-3,121.49.35A80.9,80.9,0,0,1,138.9,3.46C137,10,137.14,9.6,135.08,16.73c-7.79-2.38-13-3.23-22.79-3.33-32.79,0-64.08,12.93-83.26,40C16.71,69.7,12.56,91.09,15.36,111.07c-2.5,8.71-5,17.42-7.54,26.24-.67-1.33-1.23-2.65-1.72-3.9-9.86-27.57-7.7-55.31,6-80.74ZM201.63,112a73.76,73.76,0,0,1-4.55,44c-7.27,9.12-15.92,18-25.14,24.13C152,192.44,133.56,198,108.43,198.61c-23.6-.07-46.78-5.9-66.31-19.05q2.12-7.32,4.21-14.64c13.24,10.53,27.24,15.79,42.41,18.78,25.73,4.68,56.49-.06,80.67-19.31,12.1-9.89,20.73-20.19,26.83-34.16A85.86,85.86,0,0,0,201.63,112Zm451.14,23.11,28.07-39.73a13.54,13.54,0,0,1,3.54-3.61,7.31,7.31,0,0,1,4-1.26,7.6,7.6,0,0,1,2.55.44h0l.35.14h0l.34.17A3.51,3.51,0,0,1,693,92.47a5.16,5.16,0,0,1,.55,1.34,13.87,13.87,0,0,1,.4,1.86v0l5.28,39.72.11.84H690.1l-.09-.64-1.2-8.48H668l-6.25,8.8-.22.31h-9.58l.83-1.18Zm33.07-46.46,4.9-7,.23-.33h9.14l-1.39,1.3-7.51,7-.21.2h-6l.82-1.18Zm2,30.69-2.34-17.2-12,17.2Zm-76.37,16,10.77-37.65a10.31,10.31,0,0,1,3.15-5.26,8.28,8.28,0,0,1,5.46-1.8h1a12,12,0,0,1,1.59.29h0l.4.1.38.14h0a4.19,4.19,0,0,1,1.62,1.21,5.35,5.35,0,0,1,.8,1.4,9.56,9.56,0,0,1,.49,1.84h0l5.41,29,9.47-33.07.15-.54h8.91l-.28,1-11,38.57a8.13,8.13,0,0,1-1.12,2.36,9.33,9.33,0,0,1-1.88,1.95h0c-.22.16-.43.32-.63.45a7.23,7.23,0,0,1-.66.4,9.37,9.37,0,0,1-3.67,1.14h-.18a2.74,2.74,0,0,1-.45,0h-.5a6.91,6.91,0,0,1-1.68-.2,4.52,4.52,0,0,1-1-.37q-2.34-1.14-3-4.49l-5.59-28.51-9.27,32.42-.16.54h-8.84l.28-.95Zm-50.82-.23,28.09-39.72h0a13.44,13.44,0,0,1,3.54-3.62,7.3,7.3,0,0,1,4-1.26,7.6,7.6,0,0,1,2.55.44h0l.35.14a3.59,3.59,0,0,1,.34.17h0a3.64,3.64,0,0,1,1.33,1.25,5.53,5.53,0,0,1,.55,1.34,12.55,12.55,0,0,1,.39,1.86v0l5.29,39.72.11.84H598l-.09-.64-1.2-8.48H575.86l-6.22,8.8-.22.32H559.8l.84-1.18ZM595.7,119.3l-2.34-17.19-12,17.19ZM531.92,91h8.43l.08.65,4.2,33.27,23.55-33.6.22-.32H578l-.83,1.18-28.56,40.63h0l-.42.56-.42.52h0a8.94,8.94,0,0,1-2.28,2,7,7,0,0,1-1.83.72h0a9.48,9.48,0,0,1-2.11.23,8.05,8.05,0,0,1-2-.23,3.94,3.94,0,0,1-1.56-.77h0a3.63,3.63,0,0,1-.34-.34h0a4.2,4.2,0,0,1-.3-.38,6.13,6.13,0,0,1-.85-2.65h0l-5.3-40.63-.11-.84ZM482.24,123l5.5-19.22h0c.17-.6.37-1.2.59-1.79s.45-1.13.69-1.66A15.08,15.08,0,0,1,494.37,94,17.38,17.38,0,0,1,500,91.71,32.19,32.19,0,0,1,507.3,91h5.52a27.16,27.16,0,0,1,6.93.75,9.37,9.37,0,0,1,4.46,2.4h0a6.08,6.08,0,0,1,.79,1,6.48,6.48,0,0,1,.57,1.15q1.17,3-.23,7.92l-5.5,19.22a20.48,20.48,0,0,1-2.6,5.78,14.28,14.28,0,0,1-4,4,17.23,17.23,0,0,1-5.6,2.29,32.32,32.32,0,0,1-7.32.75h-5.53a21.47,21.47,0,0,1-6.33-.82,10.07,10.07,0,0,1-4.36-2.57h0l-.08-.08h0c-.22-.24-.43-.49-.62-.74s-.36-.53-.52-.8a9.27,9.27,0,0,1-1.14-4.8v-.1l.24-1.6.26-1.63V123Zm12.16,5.42h9.87a11.07,11.07,0,0,0,2.69-.29,4.56,4.56,0,0,0,1.75-.78h0a4.76,4.76,0,0,0,1.23-1.46,10.84,10.84,0,0,0,1-2.42l5.73-20a9.15,9.15,0,0,0,.42-2.44,2.26,2.26,0,0,0-.29-1.3h0a1.29,1.29,0,0,0-.16-.18,1.58,1.58,0,0,0-.27-.18,6.38,6.38,0,0,0-3.1-.55h-9.94a11.57,11.57,0,0,0-2.74.29l-.35.09h0a4.37,4.37,0,0,0-1.42.69h0a4.83,4.83,0,0,0-1.23,1.49,11,11,0,0,0-1,2.51l-5.7,19.92a8.64,8.64,0,0,0-.41,2.43,2.23,2.23,0,0,0,.33,1.28h0a2.07,2.07,0,0,0,1.14.67,9.26,9.26,0,0,0,2.48.28Zm-61,6.87,12.54-43.8.15-.54h26a9.78,9.78,0,0,1,6.22,1.83,10.56,10.56,0,0,1,1.81,1.78,5.48,5.48,0,0,1,1,1.86h0a4.07,4.07,0,0,1,.12.55c0,.19.05.38.07.58a11,11,0,0,1-.48,3.46l-2.16,7.54a11,11,0,0,1-3.1,4.83l0,0h0c-.41.39-.82.75-1.24,1.08s-.84.64-1.28.93h0a12.77,12.77,0,0,1-7.12,2.2h0l-7.17,0,12.43,17.39.84,1.18h-1.45l-9.68,0h-.39l-.23-.31-13-18.33-5.18,18.1-.16.54h-8.83l.27-.95Zm15.66-23.84a7.09,7.09,0,0,1,.69-.49h0a8.79,8.79,0,0,1,3.21-1.15h13c.34,0,.66-.12,1-.19s.61-.18.88-.28a3.85,3.85,0,0,0,2.48-2.54l1.41-4.92.21-.74a2.13,2.13,0,0,0-.35-1.6h0a2.57,2.57,0,0,0-1.67-.76H452.68l-3.63,12.68ZM389.76,124l6-21a15.7,15.7,0,0,1,6.12-9q4.38-3,11.32-3h20.3l-.27,1-1.81,6.33-.16.54H409.89a11.3,11.3,0,0,0-2.18.44,4.57,4.57,0,0,0-1.4.68v0h0l-.25.22-.26.3h0a7.42,7.42,0,0,0-1.16,2.49l-6.24,21.82-.25.86a2.67,2.67,0,0,0,.39,1.91h0a2.77,2.77,0,0,0,1.75.91h12.18a6.94,6.94,0,0,0,3.59-.86,4.78,4.78,0,0,0,.44-.29h0a5.63,5.63,0,0,0,1.72-2.2l.17-.61,4-14.11.16-.55h8.83l-.27,1-3.85,13.44h0c-.09.31-.19.65-.32,1s-.22.64-.34,1h0a13.09,13.09,0,0,1-2.21,3.9h0c-.28.33-.54.63-.79.9l-.81.81a15.6,15.6,0,0,1-4.4,3h0c-.33.15-.64.27-.92.37s-.63.22-1,.31a21.81,21.81,0,0,1-5.88.72H400.53a21.11,21.11,0,0,1-3.59-.25h0l-.4-.08-.4-.09a13,13,0,0,1-2-.67l0,0a11,11,0,0,1-2.86-1.92,6.58,6.58,0,0,1-1.69-2.47,7.76,7.76,0,0,1-.46-3.06,15,15,0,0,1,.63-3.71Zm-34.41,2.71h0a2.41,2.41,0,0,0,.15.33,1.94,1.94,0,0,0,1,1h0a2,2,0,0,0,.32.1l.46.1a25.94,25.94,0,0,0,4.12.24H380l-.28.95-1.81,6.33-.15.54H357.65q-6.84,0-9.65-3.24h0a6.18,6.18,0,0,1-.71-1h0a6.74,6.74,0,0,1-.53-1.12,11.81,11.81,0,0,1,.18-7.32l6-21.11a16.78,16.78,0,0,1,2.38-5.1,13.21,13.21,0,0,1,3.81-3.6h0A13.26,13.26,0,0,1,360.5,93a14.53,14.53,0,0,1,1.46-.62A27.71,27.71,0,0,1,371.52,91h19.39l-.27,1-1.81,6.33-.16.54H366.72a5.73,5.73,0,0,0-2.46.72h0a4.27,4.27,0,0,0-1.26,1A7.35,7.35,0,0,0,362,102l-.31,1.09-1.85,6.47h25.74l-.27.95-1.83,6.39-.16.55H357.53L356,122.69l-.78,2.74a2.4,2.4,0,0,0-.06.4,2.5,2.5,0,0,0,.06.51M318.34,97.83l1.81-6.33.15-.54H351l-.28,1-1.81,6.33-.15.54H337.81l-10.57,36.93-.15.54h-8.91l.28-.95,10.45-36.52H318.06l.28-1Zm-53,37.47,10.77-37.65a10.31,10.31,0,0,1,3.15-5.26,8.28,8.28,0,0,1,5.46-1.8h1.05a12.62,12.62,0,0,1,1.59.29h0l.4.1.38.14h0a4.19,4.19,0,0,1,1.62,1.21,5.35,5.35,0,0,1,.8,1.4,9.56,9.56,0,0,1,.49,1.84h0l5.41,29L306,91.5l.15-.54H315l-.28,1-11,38.57a8.13,8.13,0,0,1-1.12,2.36,9.09,9.09,0,0,1-1.88,1.95h0c-.22.16-.43.32-.63.45a7.23,7.23,0,0,1-.66.4,9.37,9.37,0,0,1-3.67,1.14h-.18a2.74,2.74,0,0,1-.45,0h-.5a6.91,6.91,0,0,1-1.68-.2,4.52,4.52,0,0,1-1-.37,5.85,5.85,0,0,1-3-4.49l-5.6-28.51-9.27,32.42-.16.54h-8.84l.28-.95Zm-20.78,0,12.54-43.8.15-.54h8.84l-.27,1-12.54,43.8-.16.54h-8.83l.27-.95Zm260.91,60.19,28.09-39.72h0a13.61,13.61,0,0,1,3.55-3.62,7.26,7.26,0,0,1,4-1.26,7.64,7.64,0,0,1,2.55.44h0l.36.14.33.17h0a3.56,3.56,0,0,1,1.33,1.25,5.51,5.51,0,0,1,.56,1.34,15.77,15.77,0,0,1,.39,1.86v0L552,195.83l.11.84h-9.25l-.1-.64-1.2-8.48H520.72l-6.22,8.81-.23.31h-9.61l.83-1.18Zm35.07-15.77-2.35-17.19-12,17.19Zm-64-28.34h8.42l.08.65,4.21,33.27,23.54-33.6.23-.32h9.59l-.83,1.18L493.2,193.19h0c-.13.18-.27.37-.42.56s-.26.34-.42.52h0a8.94,8.94,0,0,1-2.28,2,6.72,6.72,0,0,1-1.83.72h0a9.48,9.48,0,0,1-2.11.23,8.05,8.05,0,0,1-2-.23,3.94,3.94,0,0,1-1.56-.77h0c-.11-.1-.22-.21-.34-.34h0a2.92,2.92,0,0,1-.29-.38,6,6,0,0,1-.86-2.65h0l-5.3-40.63-.11-.84Zm-54,44.11,28.09-39.72h0a13.44,13.44,0,0,1,3.54-3.62,7.28,7.28,0,0,1,4-1.26,7.6,7.6,0,0,1,2.55.44h0l.35.14.34.17h0a3.64,3.64,0,0,1,1.33,1.25,5.53,5.53,0,0,1,.55,1.34,14,14,0,0,1,.39,1.86v0L469,195.83l.11.84h-9.26l-.09-.64-1.2-8.48H437.76l-6.22,8.81-.23.31H421.7l.84-1.18Zm35.06-15.77-2.34-17.19-12,17.19Zm-74.76,16,12.54-43.8.15-.54h26a9.78,9.78,0,0,1,6.22,1.83,10.56,10.56,0,0,1,1.81,1.78h0a5.27,5.27,0,0,1,1,1.86v0h0a4.07,4.07,0,0,1,.12.55,5.41,5.41,0,0,1,.07.58,10.48,10.48,0,0,1-.48,3.46L428.15,169a11,11,0,0,1-3.1,4.84h0c-.41.39-.82.75-1.24,1.08s-.84.64-1.28.93h0a12.77,12.77,0,0,1-7.12,2.2h0l-7.17,0,12.43,17.39.84,1.18H420l-9.68,0H410l-.22-.31-13-18.33-5.18,18.1-.16.54h-8.83l.27-.95Zm15.66-23.84a7.09,7.09,0,0,1,.69-.49,8.73,8.73,0,0,1,3.21-1.15h13a9.45,9.45,0,0,0,1-.19,8.3,8.3,0,0,0,.88-.28,3.82,3.82,0,0,0,2.48-2.54l1.41-4.92.21-.74A2.13,2.13,0,0,0,421,160h0a2.61,2.61,0,0,0-1.66-.76H402.13l-3.63,12.68Zm-60,23.84L351,151.92l.15-.54h22.4a23.81,23.81,0,0,1,6.5.76,8.81,8.81,0,0,1,4.44,2.61,6.75,6.75,0,0,1,1.53,4.51,12.79,12.79,0,0,1-.55,3.53l-1.79,6.27h0c-.14.48-.31,1-.49,1.45s-.39.93-.61,1.37a14.92,14.92,0,0,1-5,5.65,17.53,17.53,0,0,1-5.1,2.31,22.81,22.81,0,0,1-6.06.76H351.65l-4.44,15.51-.16.54h-8.83l.27-.95Zm29.66-22.93a9,9,0,0,0,4.36-.82h0l.37-.24c.11-.09.23-.18.35-.29a7,7,0,0,0,1.56-2.35l.22-.75,1.6-5.6.22-.75a4.63,4.63,0,0,0,0-1.34,1.23,1.23,0,0,0-.27-.63l-.14-.11-.23-.13a8.46,8.46,0,0,0-2.45-.59h-16l-3.89,13.59ZM295,183.43l5.5-19.22h0c.17-.6.37-1.2.59-1.79s.45-1.13.7-1.65a15,15,0,0,1,5.34-6.34,17.38,17.38,0,0,1,5.61-2.29,32.32,32.32,0,0,1,7.32-.75h5.53a27.13,27.13,0,0,1,6.92.75,9.4,9.4,0,0,1,4.46,2.4h0a6,6,0,0,1,.79,1,6.48,6.48,0,0,1,.57,1.15q1.17,3-.23,7.92l-5.5,19.22a20.48,20.48,0,0,1-2.6,5.78,14.37,14.37,0,0,1-4,4,17.38,17.38,0,0,1-5.61,2.29,32.26,32.26,0,0,1-7.32.75h-5.53a21.36,21.36,0,0,1-6.32-.82,10,10,0,0,1-4.37-2.57h0l-.08-.08h0c-.22-.24-.43-.49-.62-.74s-.36-.53-.52-.8a9.27,9.27,0,0,1-1.14-4.8v-.1l.24-1.6.26-1.63v-.09Zm12.16,5.42H317a11.13,11.13,0,0,0,2.69-.29,4.56,4.56,0,0,0,1.75-.78h0a4.76,4.76,0,0,0,1.23-1.46,10.84,10.84,0,0,0,1-2.42l5.73-20a9.79,9.79,0,0,0,.43-2.45,2.34,2.34,0,0,0-.3-1.3h0a1.29,1.29,0,0,0-.16-.18,1.58,1.58,0,0,0-.27-.18,6.5,6.5,0,0,0-3.1-.55h-9.94a11.57,11.57,0,0,0-2.74.29l-.35.09h0a4.32,4.32,0,0,0-1.41.69h0a5,5,0,0,0-1.23,1.49,11.1,11.1,0,0,0-1,2.52l-5.7,19.91a8.64,8.64,0,0,0-.41,2.43,2.23,2.23,0,0,0,.33,1.28h0a2.07,2.07,0,0,0,1.14.67,9.26,9.26,0,0,0,2.48.28Zm-62.76,6.87,12.53-43.8.16-.54h26.24q4.91,0,7.34,3.08a7.12,7.12,0,0,1,1.49,3.61,11.27,11.27,0,0,1-.45,4.42L285.27,185l-.51,1.76v.05l0,.06h0a17.12,17.12,0,0,1-.86,1.65,14.39,14.39,0,0,1-1,1.52,16.63,16.63,0,0,1-7.71,5.49h0c-.54.2-1.06.38-1.57.53s-1,.27-1.44.36h0l-.38.07-.37,0a13.54,13.54,0,0,1-1.86.13H244.12l.28-.95Zm26.46-6.87c3,0,4.92-1.59,5.83-4.75l6-20.86.25-.89a5.78,5.78,0,0,0,.07-1.67,1.42,1.42,0,0,0-.33-.82h0a2,2,0,0,0-.95-.45,9.08,9.08,0,0,0-2.08-.2H263.69l-8.49,29.65Zm226-117,26.27-37.19A13.42,13.42,0,0,1,526.7,31a7.31,7.31,0,0,1,4-1.26,7.68,7.68,0,0,1,2.55.44h0l.36.14h0l.33.17a3.51,3.51,0,0,1,1.34,1.25,5.51,5.51,0,0,1,.56,1.34,15.77,15.77,0,0,1,.39,1.86v0l5.28,39.72.11.84h-9.25l-.1-.65-1.2-8.47H510.31l-6.26,8.8-.22.31H499.3l0,.07H498l-9.53,0H488l-.22-.34L476.39,57.49v0l-.47-.8,0,0v0h0c-.14-.26-.27-.53-.4-.81s-.23-.52-.32-.76-.11-.29-.16-.43l-5.84,20.42-.16.54h-8.83l.27-1L473,30.78l.16-.54H482l-.28,1-5.16,18,.63-.56h0l2.57-2.13h0l19.79-16.12.21-.17H511.5l-1.63,1.33L484.29,52.43l12.59,19.38Zm31.28-43.92,4.89-7,.23-.33h9.15l-1.4,1.3-7.5,7-.21.2h-6l.83-1.18Zm2,30.69-2.35-17.2-12,17.2Zm-111.66,16,1.81-6.33.15-.55h21.33a6.16,6.16,0,0,0,1.7-.37,4.53,4.53,0,0,0,1.31-.75h0l.32-.29h0a3.83,3.83,0,0,0,.28-.29,3.56,3.56,0,0,0,.83-1.35l1.6-5.59h0v0h0c0-.08,0-.15,0-.2l0-.19a1.39,1.39,0,0,0-.11-.75l0-.06v0a2.16,2.16,0,0,0-.28-.57,1.14,1.14,0,0,0-.37-.32h0a3,3,0,0,0-.75-.26,11.2,11.2,0,0,0-1.35-.22H434.51q-.66-.09-1.23-.21c-.39-.09-.77-.19-1.15-.3A8.85,8.85,0,0,1,427.69,53h0a6.94,6.94,0,0,1-1-1.61h0a6.9,6.9,0,0,1-.21-4.76l1.59-5.57h0a17.66,17.66,0,0,1,.69-1.93,14.24,14.24,0,0,1,8.72-8h0l.37-.12.37-.11a13.49,13.49,0,0,1,1.91-.4c.44-.07,1-.11,1.6-.15h0c.63,0,1.33,0,2.09,0h21.42l-.28,1-1.81,6.33-.15.54H441l-.49.07-.47.08a5.16,5.16,0,0,0-1.62.53,2.83,2.83,0,0,0-.65.61,5.72,5.72,0,0,0-.63,1l-.21.75-1.25,4.34-.23.82a2.43,2.43,0,0,0,.42,2.1,3.42,3.42,0,0,0,2.48.7h8.84a12.17,12.17,0,0,1,6.22,1.5h0A7.66,7.66,0,0,1,456.72,54a6.38,6.38,0,0,1,.2,4.48l-2,6.94h0a12.31,12.31,0,0,1-.51,1.44,13.37,13.37,0,0,1-.69,1.36,14.39,14.39,0,0,1-6.08,5.44h0a16.74,16.74,0,0,1-3.73,1.43,15.66,15.66,0,0,1-3.84.48H418.21l.28-1Zm-36.1-9.18,30.14-27.34H389.41l.28-1,1.81-6.33.15-.54h13l-.08-.16-4-7L400,22h7.21l.2.42,2.08,4.3,4.62-4.54.22-.22h.31l5.47,0H422l-1.38,1.29-7.43,7h5.54a7.24,7.24,0,0,1,2.52.41h0l.35.15A4.57,4.57,0,0,1,423.15,32a4.1,4.1,0,0,1,1,2,5.15,5.15,0,0,1-.17,2.34h0c0,.07-.06.17-.1.29s-.07.21-.11.3a7.7,7.7,0,0,1-.82,1.5,8.12,8.12,0,0,1-.74,1,7.11,7.11,0,0,1-.79.77L391.06,67.7h23.26l-.27,1L412.24,75l-.16.54H385.69a7.53,7.53,0,0,1-2.76-.46,4.34,4.34,0,0,1-.4-.17,5,5,0,0,1-1.68-1.27h0a5,5,0,0,1-.42-.55,4.83,4.83,0,0,1-.32-.59,4.73,4.73,0,0,1-.2-3.39,6.82,6.82,0,0,1,.92-1.93,10.08,10.08,0,0,1,1.57-1.77Zm-52.64,8.95,28.09-39.72h0A13.44,13.44,0,0,1,361.38,31a7.3,7.3,0,0,1,4-1.26,7.6,7.6,0,0,1,2.55.44h0l.35.14.34.17h0A3.56,3.56,0,0,1,370,31.75a5.16,5.16,0,0,1,.55,1.34A13.87,13.87,0,0,1,371,35v0l5.28,39.72.11.84h-9.26l-.09-.65-1.2-8.47H345l-6.23,8.8-.22.32h-9.62l.84-1.18Zm35.06-15.77-2.34-17.19-12,17.19Zm-75.67,16,12.54-43.8.15-.54h26a9.73,9.73,0,0,1,6.21,1.83,10.65,10.65,0,0,1,1.82,1.78,5.48,5.48,0,0,1,1,1.86h0a4.07,4.07,0,0,1,.12.55c0,.19.05.38.07.58a10.8,10.8,0,0,1-.49,3.46l-2.15,7.54a11,11,0,0,1-3.1,4.83l0,0h0c-.41.39-.82.75-1.24,1.08s-.84.64-1.28.93h0a12.79,12.79,0,0,1-7.12,2.2h-7.17L327,74.33l.84,1.18h-1.45l-9.69,0h-.38l-.23-.31L303,56.89,297.86,75l-.16.54h-8.83l.27-1ZM304.8,50.75a5.08,5.08,0,0,1,.69-.5h0a8.66,8.66,0,0,1,3.21-1.15h13c.34-.05.66-.12,1-.19s.61-.18.88-.28a3.85,3.85,0,0,0,2.48-2.54l1.41-4.92.21-.74a2.08,2.08,0,0,0-.36-1.6h0a2.57,2.57,0,0,0-1.67-.76H308.43L304.8,50.75Zm-30.36.9a9,9,0,0,0,4.37-.82h0a2.41,2.41,0,0,0,.36-.23,4.47,4.47,0,0,0,.35-.29A7.19,7.19,0,0,0,281.09,48l.21-.77,1.61-5.59.21-.76a4.24,4.24,0,0,0,0-1.33,1.15,1.15,0,0,0-.26-.63l-.14-.11-.23-.13a8.54,8.54,0,0,0-2.46-.59h-16l-3.89,13.59ZM91.88,225c-3.3-.48-11.8-2.13-15.76-3.22L80,208.41c28.66,7.24,55,3.54,78.25-8.73,25.32-16,42.76-38.73,44.71-69.44.56-17.13-3.33-32.15-12.92-46.93-18.5-26-45.87-41.07-77.89-42.57-46.16-1.35-85.72,25.57-96.74,70.34-2.43-16-.25-33.76,7.39-47.65,5.92-7.22,15.07-15.72,30.76-23.62C88,22,130.75,22.6,165.41,41.91c37.07,22.24,58.85,59.29,50.76,103.22-6.79,27.75-23.23,49.21-47.83,65C146.4,223.55,118.26,228.2,91.88,225ZM98,80.61h22l-5.21,18.1h-22C94.14,94,97,84,98,80.61Zm42.48,72.66c-9.59-.05-19.37,0-28.95,0,4.34-15.1,8.75-30.42,13.1-45.57h21.91l-8.07,28.07c10.86-.18,18.66-1.85,26-11.25,4.55-6.13,9.71-18.09,1.52-24.11-2.19-1.52-5.31-1.69-7.38-1.69H127.21q2.61-9.06,5.21-18.1,16.43-.06,33,0c24.26.15,31.43,21.79,22.37,42.74-7.77,16.76-20.79,25.8-39.06,29.22a52.64,52.64,0,0,1-8.21.74Zm-41.36,0h-22q6.54-22.78,13.1-45.58h22L99.11,153.27ZM28.54,107.91H58.39c6.1,0,8.41-9.18,2.41-9.4H31.25c1.77-6.13,3.45-12,5.15-17.89H71.2c7.53,0,14.34,1.83,16.41,8.89,3.22,11-4.33,25.37-13.52,31.32-6.48,3.75-13.75,4.8-20.45,4.79H45.23L32,171.79c-4.65-3.74-13.13-13.46-16.37-18.8,5-17.38,8.69-30.22,13-45.08Z" transform="translate(0 0)"/></svg>