<svg id="Page_1" data-name="Page 1" xmlns="http://www.w3.org/2000/svg" viewBox="0 0 536.5 255.61"><defs><style>.cls-1{fill:#9d9d9c;fill-rule:evenodd;}</style></defs><title>ROPID_logo_grey</title><path class="cls-1" d="M224.43,115.37a55.28,55.28,0,1,1-55.28,55.28,55.38,55.38,0,0,1,55.28-55.28Zm-.08,23.69a31.87,31.87,0,1,1-31.87,31.86,31.93,31.93,0,0,1,31.87-31.86Z" transform="translate(-14.3 -2.59)"/><path class="cls-1" d="M408.41,115.15h23V225.87h-23V115.15ZM419.92,82.9a11.51,11.51,0,1,1-11.51,11.51A11.53,11.53,0,0,1,419.92,82.9Z" transform="translate(-14.3 -2.59)"/><path class="cls-1" d="M343.89,115.22a55.29,55.29,0,1,1-32.27,100.13V258.2h-23v-143h23v10.44a55,55,0,0,1,32.27-10.44Zm-32.27,52.62v5.59a31.87,31.87,0,1,0,0-5.59Z" transform="translate(-14.3 -2.59)"/><path class="cls-1" d="M495.51,114.94a54.91,54.91,0,0,1,32.27,10.44V82.68h23v143h-23V215.05a55.26,55.26,0,1,1-32.27-100.11Zm-.08,23.83a31.87,31.87,0,1,1-31.87,31.87,31.93,31.93,0,0,1,31.87-31.87Z" transform="translate(-14.3 -2.59)"/><path class="cls-1" d="M64.86,120.28c.07,24.31-.07,82.12-.07,105.74-6.35-5.94-13.4-12.57-25.07-24.87-6.56,6.43-15.2,14.92-25.42,24.87,0-35.16.07-69.62,0-105.81,19.27,0,40.61-.14,57.81-.07,20.31,35.36,43.17,76.39,59.4,105.94-15.75-.06,3.38,0-7.19,0-20.44-35.84-38-66.23-59.46-105.8Zm35.71-66.65v-51c7,0,34.8.9,59.46,26.59-7,5.94-31.91,27.83-38.4,33.64-8.63-7.26-14.57-8.57-21.06-9.19ZM35.85,30.77c17.54-20.72,44-28.32,60.43-28.11,0,16.92-.13,34.19-.13,51.11-6.29-.07-15.54,3.8-21.28,9.53-11.81-9.74-28.52-23.55-39-32.53Zm89,35.91c11.05-9.87,25.21-22.58,38.33-33.7,8.08,8.56,18,27.9,19.4,47.79-12.91.62-41.64,1.8-51.1,2.21a37.45,37.45,0,0,0-6.63-16.3ZM14.44,79.12C16.24,63,22.31,47,32.67,34.5c11.95,9.74,23.21,19,39.1,32.46C65.55,76.08,66,81.67,65.2,84c.07,13.26.07,14.29-.27,32H14.44c-.07-13.67-.07-22.51,0-36.94Zm161.62,40.11c-18.65-8.5-31-14-46.34-21.06.69-2.84,1.93-7.39,1.79-10.71,17.89-1.1,35-1.31,51.39-1.86-.28,11.74-1.59,21.61-6.84,33.63Zm-21.21,30.19c-11-13-24.45-28.66-33-38.81.69-1,4.49-4.63,5.59-7.74,11.88,5.25,30.25,13.54,46.55,21.14-2.9,6.42-10.22,17.19-19.13,25.41ZM114.24,116a32,32,0,0,0,4.14-2.63c12.5,15.13,18.24,21.69,32.81,38.95-3.87,3-3.59,2.63-6.49,4.91,8.56,14.78,8.08,14.09,18.65,33.56,0,16.58-.07-4.21,0,13.12-15.54-27.28-32.26-57.66-49.11-87.91Zm-10.77,3.59a29.93,29.93,0,0,0,6.63-1.8c19.13,33.71,36.53,65.47,53.18,95.86V226C149,201,117.49,144.59,103.47,119.59ZM150,226c-16.65-30.39-44.34-80.26-58.5-105.81,10.22.07-3.32,0,6.84,0,9,16.16,47.37,85.16,58.91,105.81-11-.21,4.83.07-7.25,0ZM78.46,120.14c9.4.07-3.31.07,6.5-.07,17.26,30.67,40.12,71.34,59.25,106h-7.32c-13.95-25.07-48-87-58.43-105.88Z" transform="translate(-14.3 -2.59)"/></svg>